PathFileType	4	(X/Y/Z)	..\data\2014034\dynamic\2014034_C4_04.trc
DataRate	CameraRate	NumFrames	NumMarkers	Units	OrigDataRate	OrigDataStartFrame	OrigNumFrames
100.000000	100.000000	4	52	mm	100.000000	45	180
Frame#	Time	L_IAS			L_IPS			R_IPS			R_IAS			L_FTC			L_FLE			L_FME			L_FAX			L_TTC			L_FAL			L_TAM			L_FCC			L_FM1			L_FM2			L_FM5			R_FTC			R_FLE			R_FME			R_FAX			R_TTC			R_FAL			R_TAM			R_FCC			R_FM1			R_FM2			R_FM5			CV7			TV10			SXS			SJN			L_SIA			L_SRS			L_SAA			L_SAE			L_HLE			L_HME			L_UOA			L_RSP			L_UHE			L_HM2			L_HM5			R_SIA			R_SRS			R_SAA			R_SAE			R_HLE			R_HME			R_UOA			R_RSP			R_UHE			R_HM2			R_HM5			
		X1	Y1	Z1	X2	Y2	Z2	X3	Y3	Z3	X4	Y4	Z4	X5	Y5	Z5	X6	Y6	Z6	X7	Y7	Z7	X8	Y8	Z8	X9	Y9	Z9	X10	Y10	Z10	X11	Y11	Z11	X12	Y12	Z12	X13	Y13	Z13	X14	Y14	Z14	X15	Y15	Z15	X16	Y16	Z16	X17	Y17	Z17	X18	Y18	Z18	X19	Y19	Z19	X20	Y20	Z20	X21	Y21	Z21	X22	Y22	Z22	X23	Y23	Z23	X24	Y24	Z24	X25	Y25	Z25	X26	Y26	Z26	X27	Y27	Z27	X28	Y28	Z28	X29	Y29	Z29	X30	Y30	Z30	X31	Y31	Z31	X32	Y32	Z32	X33	Y33	Z33	X34	Y34	Z34	X35	Y35	Z35	X36	Y36	Z36	X37	Y37	Z37	X38	Y38	Z38	X39	Y39	Z39	X40	Y40	Z40	X41	Y41	Z41	X42	Y42	Z42	X43	Y43	Z43	X44	Y44	Z44	X45	Y45	Z45	X46	Y46	Z46	X47	Y47	Z47	X48	Y48	Z48	X49	Y49	Z49	X50	Y50	Z50	X51	Y51	Z51	X52	Y52	Z52	

46	0.45	512.4546508789064	1022.1142578125	-407.8977966308595	299.4411926269532	1061.078002929688	-317.5149536132813	298.1520385742188	1055.402465820313	-221.4117431640626	506.2097167968751	1034.664184570313	-129.6813507080078	419.2535400390626	964.3677368164065	-454.3992919921876	360.9822082519532	517.5411376953126	-400.2674255371095	353.7899475097657	514.8298950195314	-252.5620880126954	331.9834289550782	462.1324157714845	-402.9523925781251	404.7317199707032	444.816864013672	-340.6822509765626	254.2378692626954	78.48340606689455	-371.9007568359376	265.0661926269532	87.30966186523439	-273.0714721679688	195.444564819336	30.44802284240723	-328.5785217285157	405.352264404297	19.27794075012207	-273.7925720214844	422.370086669922	35.67074966430665	-335.9015197753907	382.9459533691407	20.56175041198731	-391.7185668945314	423.2800903320314	957.304382324219	-77.25968170166017	581.3216552734376	543.3854980468751	-99.9064636230469	622.6843261718751	533.5282592773439	-236.3550262451172	573.6989135742189	485.0606384277345	-99.46871185302737	652.7650146484376	474.9580383300782	-143.5464782714844	558.1848144531251	82.9593963623047	-119.9851608276367	605.8054199218751	97.8488693237305	-207.8176574707032	528.5327758789064	26.07702827453614	-181.7971343994141	743.5202026367189	47.61291122436524	-173.6775207519532	733.0960693359376	64.08563232421876	-114.6619720458985	689.4216308593751	35.7399024963379	-78.37570190429689	403.4114379882814	1577.90087890625	-287.0261535644532	289.0351562500001	1315.786743164063	-290.2059936523438	568.0920410156251	1265.189575195313	-274.6360168457032	516.7777099609376	1472.557373046875	-270.9361877441407	298.6876220703126	1349.407958984375	-407.457733154297	354.6199340820313	1504.130004882813	-405.663055419922	422.4667968750001	1498.80419921875	-476.4981689453126	493.1651306152345	1481.595581054688	-485.4132690429689	497.3331909179689	1150.858154296875	-569.2991333007814	443.2039794921876	1128.5390625	-486.0816345214845	453.2424316406251	1115.632202148438	-546.8771362304689	651.2627563476564	914.215270996094	-513.7895507812501	610.3346557617189	908.3906250000002	-589.4081420898439	715.4195556640626	827.9699707031252	-521.4091796875001	625.2448120117189	811.4649658203127	-588.6133422851564	264.1816406250001	1353.696166992188	-198.4723358154297	332.6486206054688	1505.750610351563	-188.9568786621094	373.0205993652344	1506.815795898438	-106.8010559082032	422.2913513183595	1496.021850585938	-73.24210357666017	296.5673828125001	1173.783325195313	-39.82569122314454	290.8197937011719	1162.723510742188	-132.6544036865235	261.4477539062501	1158.759887695313	-81.55364227294923	344.8651428222657	883.7333984375002	-30.41303443908692	271.9495239257813	898.741638183594	3.71116065979004	352.7925415039063	788.7365722656252	-8.136290550231935	241.3748626708985	805.6026611328127	-5.156536102294923	
47	0.46	524.2248535156251	1019.641784667969	-407.5740356445314	311.2523803710938	1059.19140625	-316.2386474609376	310.3140258789063	1053.339111328125	-220.1860656738282	518.7863159179689	1031.628173828125	-129.0077056884766	430.3642883300782	962.8247680664065	-453.9046325683595	366.3441162109376	517.0300292968751	-399.7872009277345	359.2070312500001	514.4724731445314	-252.1381072998047	336.4606933593751	461.9170837402345	-402.4078369140626	409.0706481933595	443.5828247070314	-340.2455749511719	254.4613494873047	79.07142639160158	-370.7898559570313	265.6355590820313	87.78793334960939	-271.9839477539063	195.3849334716797	31.41757583618165	-327.1991271972657	405.6124572753907	19.15533828735352	-273.6278381347657	422.2041015625001	35.56491851806641	-335.7379455566407	382.4598693847657	20.81054878234864	-391.2002868652345	435.9064941406251	954.8235473632815	-77.0543670654297	594.1199951171876	540.5436401367189	-101.7173309326172	634.4274291992189	531.2895507812501	-238.6835174560547	589.1114501953126	482.4144897460939	-101.0355072021485	668.2497558593751	475.272918701172	-145.8786163330078	596.0623779296876	80.07212829589845	-118.0406646728516	641.9104614257814	96.69649505615237	-206.2989349365235	568.8206176757814	21.26582717895508	-179.2392883300782	782.3684692382815	53.32077407836915	-173.5009002685547	771.8101196289065	69.54540252685548	-114.5066299438477	729.9667358398439	39.48851013183594	-77.55886077880861	415.4287719726564	1575.90283203125	-285.9627380371094	300.9199523925782	1313.835327148438	-289.3283691406251	579.9004516601564	1262.92822265625	-273.7900085449219	528.6634521484376	1470.401733398438	-269.8068237304688	311.0566711425782	1347.470336914063	-406.9840393066407	366.9663696289063	1502.212768554688	-405.0906677246095	435.1238403320314	1496.963745117188	-475.6770935058595	506.0558166503907	1479.873657226563	-483.9311523437501	515.4952392578126	1150.471923828125	-569.9127807617189	460.7700805664064	1126.54248046875	-487.5260314941407	471.6943359375001	1114.142700195313	-548.0957031250001	673.8579711914064	916.9785766601565	-514.1002807617189	633.6242675781251	910.385925292969	-589.9119873046876	740.1292114257814	832.3114013671877	-521.4996948242189	650.8209838867189	813.8303222656252	-589.4407348632814	275.9056396484376	1351.55615234375	-198.1814575195313	344.6498413085938	1503.6396484375	-188.1682891845703	384.7119750976564	1504.615478515625	-105.8301010131836	434.0184326171876	1493.6640625	-72.12532806396486	306.0931091308594	1172.111206054688	-40.97804260253907	301.1250000000001	1161.435546875	-133.9885711669922	271.3023071289063	1157.66259765625	-83.17861175537111	348.7348327636719	881.3894653320315	-31.8133945465088	276.0426940917969	897.736755371094	2.146474123001099	354.1221313476563	785.538024902344	-10.13187885284424	243.2371520996094	805.4561157226565	-7.211603164672853	
48	0.47	536.0163574218751	1017.219848632813	-407.1513977050782	323.1220397949219	1057.171997070313	-314.8082275390626	322.5011291503907	1051.121215820313	-218.8103332519532	531.4862060546876	1028.526977539063	-128.283676147461	441.4525146484376	961.3211669921877	-453.3930053710939	372.0868530273438	516.5056762695314	-399.3682250976564	365.2246398925782	514.0591430664064	-251.785385131836	341.3225708007813	461.7127685546876	-401.922332763672	413.7885742187501	442.3078613281251	-339.9216003417969	254.7769165039063	79.76031494140626	-369.8363647460938	266.2838745117188	88.38494110107423	-271.0541687011719	195.3429260253907	32.56695175170899	-326.0188598632813	405.8043212890626	19.04589653015137	-273.4841918945313	422.0257568359376	35.45727157592774	-335.5892028808594	382.0016784667969	21.01775932312012	-390.7395629882814	448.5947875976564	952.1187744140627	-76.85962677001955	606.5505371093751	537.4857788085939	-103.3840637207032	645.6406250000001	528.6597900390626	-240.9463500976563	604.1209716796876	479.6959228515626	-102.4809799194336	683.1834716796876	475.3819274902345	-148.2083282470703	633.0974731445314	78.25279235839845	-116.1774597167969	676.9498901367189	96.59928894042972	-204.8937683105469	608.2279052734376	17.72074317932129	-176.7472686767578	819.8532714843752	59.93605804443361	-173.7091522216797	809.3001098632815	75.87693023681642	-114.7287902832032	769.4163208007815	44.22764587402344	-77.06197357177736	427.4466247558595	1573.77001953125	-284.8756713867188	312.8206481933594	1311.7421875	-288.3129577636719	591.7568969726564	1260.5712890625	-272.9042053222657	540.5653686523439	1468.12939453125	-268.6582641601563	323.3897399902344	1345.308715820313	-406.3717041015626	379.2640075683594	1500.0966796875	-404.452117919922	447.7315368652345	1494.92138671875	-474.8191223144532	518.8816528320314	1477.9638671875	-482.4326782226564	533.5485839843751	1149.982055664063	-570.4058227539064	478.2816162109376	1124.4423828125	-488.845184326172	490.0955810546876	1112.568969726563	-549.1652832031251	696.1420288085939	919.6162109375002	-514.3681030273439	656.6226196289064	912.333923339844	-590.3711547851564	764.3770751953126	836.4883422851565	-521.5039062500001	675.9970703125001	816.182312011719	-590.2413940429689	287.6967773437501	1349.27490234375	-197.7346191406251	356.6908569335938	1501.405151367188	-187.2928619384766	396.4331665039064	1502.302368164063	-104.7846145629883	445.8406372070314	1491.206665039063	-70.97080993652345	315.8261718750001	1170.330932617188	-41.91732788085938	311.5138549804688	1160.016967773438	-135.0968322753907	281.3275146484376	1156.42041015625	-84.54556274414064	353.0806579589844	879.0451660156252	-33.16365051269532	280.6798400878907	896.6643676757815	0.7386671900749208	356.0109252929688	782.4431762695315	-12.14702129364014	245.7345581054688	805.2952880859377	-9.111458778381349	
49	0.48	547.8248291015626	1014.893920898438	-406.6575622558595	335.0644226074219	1055.048950195313	-313.2232055664063	334.7241821289063	1048.772705078125	-217.2877197265626	544.3209228515626	1025.435791015625	-127.5397338867188	452.5141601562501	959.873474121094	-452.8666381835939	378.2111816406251	515.9678955078126	-399.0194091796876	371.8329467773438	513.5811767578126	-251.5121765136719	346.5792541503907	461.5229492187501	-401.5072631835939	418.8904113769532	440.9961853027345	-339.7098999023438	255.2001037597657	80.57177734375001	-369.0756835937501	267.0067749023438	89.11161041259767	-270.3157043457032	195.3245391845704	33.9220199584961	-325.0868530273438	405.9230346679689	18.95770454406739	-273.3670349121094	421.852020263672	35.35934448242188	-335.4654846191407	381.5918884277344	21.18443298339844	-390.355682373047	461.3701171875001	949.2462158203127	-76.66335296630861	618.6999511718751	534.2905883789064	-104.8713836669922	656.3944702148439	525.7148437500001	-243.1071319580079	618.7562255859376	476.9331054687501	-103.7721710205078	697.6055297851564	475.2996215820314	-150.4873046875	668.9946899414064	77.37825012207033	-114.4803619384766	710.7216796875001	97.43323516845706	-203.6622619628907	646.4699707031251	15.30873966217041	-174.4486846923828	855.7664184570315	67.2828826904297	-174.2628326416016	845.325622558594	82.88933563232423	-115.2878112792969	807.4844360351565	49.76131820678712	-76.88919830322267	439.4676208496095	1571.52685546875	-283.7608337402344	324.7496337890626	1309.529052734375	-287.1632385253907	603.6748657226564	1258.1552734375	-271.9797668457032	552.4887695312501	1465.773315429688	-267.4901733398438	335.6972656250001	1342.947387695313	-405.6201477050782	391.5128784179689	1497.811767578125	-403.7383117675782	460.2838439941407	1492.709838867188	-473.919158935547	531.6354980468751	1475.902099609375	-480.9241943359376	551.4483642578126	1149.404296875	-570.7594604492189	495.7326049804689	1122.271728515625	-489.9876098632814	508.4095764160157	1110.935546875	-550.0484008789064	718.0919189453126	922.127380371094	-514.5985717773439	679.2725219726564	914.234558105469	-590.7828369140626	788.144958496094	840.4969482421877	-521.4623413085939	700.7141723632814	818.5163574218752	-591.0079345703126	299.5656433105469	1346.871826171875	-197.1336059570313	368.7758178710938	1499.068481445313	-186.3259735107422	408.1931457519532	1499.904296875	-103.6604766845703	457.7632446289064	1488.68017578125	-69.77526855468751	325.7656250000001	1168.467407226563	-42.63350677490235	321.9768371582032	1158.499633789063	-135.9641876220703	291.5169372558594	1155.0615234375	-85.63729858398439	357.9432678222657	876.7011718750002	-34.45737457275391	285.8925476074219	895.5238037109377	-0.4992163479328157	358.5189208984376	779.4761962890627	-14.16514873504639	248.909896850586	805.1092529296877	-10.84255599975586	
